<svg width="453" height="382" viewBox="0 0 453 382" fill="none" xmlns="http://www.w3.org/2000/svg">
<path d="M415.042 215.996C436.006 215.996 453 198.982 453 177.995C453 157.007 436.006 139.994 415.042 139.994C394.078 139.994 377.084 157.007 377.084 177.995C377.084 198.982 394.078 215.996 415.042 215.996Z" fill="#E5E5F0" fill-opacity="0.8"/>
<path d="M415.042 187.994C420.559 187.994 425.031 183.517 425.031 177.994C425.031 172.472 420.559 167.994 415.042 167.994C409.525 167.994 405.053 172.472 405.053 177.994C405.053 183.517 409.525 187.994 415.042 187.994Z" fill="#E6E6E6"/>
<path d="M413.217 178.208C417.425 181.645 418.707 187.061 417.924 192.291C416.962 198.027 413.989 203.233 409.539 206.972C404.535 211.425 398.432 214.433 392.543 217.514C387.132 220.279 381.932 223.439 376.985 226.969C358.046 240.75 343.737 260.373 335.548 282.27C327.372 304.131 325.179 328.943 331.391 351.599C334.465 362.809 340.682 374.903 352.266 379.121C361.5 382.483 374.106 380.317 378.807 370.79C383.858 360.556 376.812 349.053 367.735 343.972C355.97 337.386 341.917 342.199 331.334 348.865C319.684 356.204 310.319 366.736 298.156 373.314C292.681 376.368 286.588 378.148 280.332 378.519C274.586 378.746 268.851 377.859 263.441 375.907C252.218 371.813 242.556 364.305 235.81 354.435C228.085 343.192 224.626 329.41 223.996 315.909C222.585 285.702 234.504 257.443 244.067 229.429C249.207 214.842 253.057 199.831 255.574 184.569C257.967 169.229 258.818 153.688 258.116 138.179C257.483 124.465 256.132 110.124 250.086 97.599C244.77 86.5854 235.054 77.5714 222.77 75.2988C217.233 74.2108 211.495 74.8707 206.348 77.1872C204.596 77.9875 206.117 80.5739 207.861 79.7777C218.732 74.813 231.58 79.6436 239.61 87.6597C248.986 97.0205 252.429 110.844 253.958 123.599C257.393 153.828 254.686 184.44 245.998 213.595C237.661 241.948 224.546 269.117 221.52 298.823C220.139 312.378 220.848 326.391 225.176 339.389C228.889 350.967 235.851 361.231 245.232 368.955C254.065 376.104 264.93 380.974 276.369 381.516C289.209 382.125 300.469 376.395 310.431 368.771C321.1 360.607 330.917 350.532 343.841 345.954C349.733 343.867 356.444 342.893 362.494 344.902C367.684 346.677 372.086 350.221 374.932 354.914C377.56 359.288 378.529 364.757 376.131 369.456C373.877 373.874 369.477 376.429 364.713 377.303C359.669 378.197 354.472 377.313 350.005 374.802C344.787 371.818 340.969 366.811 338.294 361.52C332.959 350.97 331.167 338.412 330.895 326.703C330.657 315.265 332.121 303.855 335.238 292.848C341.442 270.584 353.965 250.599 371.288 235.318C375.652 231.512 380.32 228.071 385.247 225.029C390.621 221.713 396.357 219.063 401.836 215.934C407.226 212.855 412.539 209.177 416.251 204.11C419.416 199.768 421.125 194.534 421.133 189.159C421.19 186.687 420.699 184.233 419.697 181.973C418.695 179.713 417.205 177.703 415.336 176.087C413.854 174.876 411.721 176.987 413.217 178.208Z" fill="#E5E5F0"/>
<path d="M58.855 352.999C72.1275 361.588 87.4812 366.406 103.276 366.939C102.994 367.609 102.677 368.263 102.327 368.899C100.489 372.297 97.8903 375.223 94.7353 377.449C90.9997 380.081 86.6139 381.636 82.0562 381.943C77.4986 382.25 72.9442 381.298 68.8898 379.192C64.8355 377.085 61.437 373.904 59.065 369.996C56.693 366.088 55.4387 361.602 55.4388 357.029V352.999H58.855Z" fill="#E5E5F0" fill-opacity="0.8"/>
<path d="M152.022 354.179V357.029C152.024 362.578 150.18 367.969 146.78 372.351C143.38 376.732 138.618 379.855 133.248 381.226C127.877 382.596 122.203 382.136 117.123 379.919C112.043 377.701 107.845 373.852 105.194 368.979C104.828 368.327 104.498 367.656 104.205 366.969C104.934 366.989 105.653 366.999 106.383 366.999C122.485 367.018 138.28 362.581 152.022 354.179Z" fill="#E5E5F0" fill-opacity="0.8"/>
<path d="M185.625 52.7914C184.876 52.6814 184.117 52.6113 183.358 52.5613C191.984 72.4647 192.582 94.9381 185.026 115.273C185.785 115.183 186.534 115.063 187.284 114.923C194.599 113.504 201.174 109.532 205.838 103.714C210.502 97.8967 212.953 90.6108 212.754 83.1536C212.555 75.6965 209.719 68.552 204.751 62.992C199.783 57.432 193.006 53.8173 185.625 52.7914Z" fill="#E5E5F0" fill-opacity="0.8"/>
<path d="M29.4075 52.5614C28.6486 52.6114 27.8892 52.6814 27.14 52.7914C19.7594 53.8173 12.9819 57.432 8.014 62.992C3.04613 68.552 0.210271 75.6965 0.011236 83.1536C-0.187799 90.6108 2.26294 97.8967 6.92713 103.714C11.5913 109.532 18.1663 113.504 25.4817 114.923C26.2308 115.063 26.98 115.183 27.7394 115.273C20.1832 94.9382 20.781 72.4648 29.4075 52.5614Z" fill="#E5E5F0" fill-opacity="0.8"/>
<path d="M185.625 52.7914C177.396 33.1107 162.153 17.1951 142.858 8.13645C123.563 -0.922178 101.593 -2.47698 81.2173 3.77409C60.8412 10.0252 43.5136 23.6358 32.6007 41.9617C21.6879 60.2877 17.969 82.0205 22.1666 102.938C26.3642 123.855 38.1785 142.464 55.3144 155.149C72.4503 167.833 93.6842 173.688 114.891 171.576C136.097 169.463 155.763 159.534 170.066 143.718C184.369 127.902 192.289 107.328 192.288 85.9922C192.284 74.5929 190.019 63.3078 185.625 52.7914ZM185.026 115.273C177.719 134.937 163.324 151.151 144.675 160.724C126.026 170.296 104.474 172.534 84.2594 166.996C64.0453 161.458 46.6337 148.546 35.4518 130.801C24.2698 113.056 20.1274 91.7635 23.8398 71.1143C27.5521 50.465 38.8504 31.9548 55.5109 19.2268C72.1714 6.49871 92.9873 0.474788 113.862 2.34061C134.736 4.20644 154.157 13.8268 168.301 29.3084C182.446 44.7899 190.29 65.0112 190.29 85.9922C190.287 95.9881 188.504 105.903 185.026 115.273Z" fill="#E5E5F0"/>
<path d="M150.334 66.4917H62.4311C57.7949 66.4917 53.3486 68.3355 50.0703 71.6174C46.7921 74.8993 44.9504 79.3504 44.9504 83.9917C44.9504 88.633 46.7921 93.0842 50.0703 96.3661C53.3486 99.648 57.7949 101.492 62.4311 101.492H150.334C154.97 101.492 159.416 99.648 162.695 96.3661C165.973 93.0842 167.815 88.633 167.815 83.9917C167.815 79.3504 165.973 74.8993 162.695 71.6174C159.416 68.3355 154.97 66.4917 150.334 66.4917Z" fill="#E5E5F0" fill-opacity="0.8"/>
<path d="M106.383 188.995C82.8987 189.006 60.3512 198.216 43.563 214.655C26.7748 231.095 17.0788 253.459 16.549 276.963C16.0191 300.468 24.6975 323.247 40.7277 340.428C56.758 357.609 78.8675 367.828 102.327 368.9C103.276 368.95 104.235 368.98 105.194 368.98C105.593 369 105.983 369 106.383 369C130.226 369 153.092 359.517 169.952 342.639C186.812 325.76 196.283 302.867 196.283 278.997C196.283 255.127 186.812 232.235 169.952 215.356C153.092 198.477 130.226 188.995 106.383 188.995ZM152.022 354.179C138.28 362.582 122.485 367.018 106.383 367C105.653 367 104.934 366.99 104.205 366.97C103.895 366.97 103.586 366.96 103.276 366.94C82.1678 366.205 62.0282 357.891 46.5384 343.516C31.0486 329.141 21.2431 309.666 18.9139 288.65C16.5847 267.634 21.8873 246.48 33.8528 229.056C45.8183 211.631 63.6474 199.099 84.0816 193.75C104.516 188.401 126.19 190.592 145.144 199.923C164.097 209.254 179.064 225.101 187.308 244.569C195.553 264.036 196.524 285.824 190.045 305.95C183.566 326.075 170.07 343.195 152.022 354.179Z" fill="#E5E5F0"/>
<path d="M169.48 256.83H130.19C127.452 256.83 124.827 255.741 122.891 253.803C120.955 251.865 119.867 249.237 119.867 246.496C119.867 243.756 120.955 241.127 122.891 239.189C124.827 237.251 127.452 236.163 130.19 236.163H169.48C172.217 236.163 174.843 237.251 176.779 239.189C178.714 241.127 179.802 243.756 179.802 246.496C179.802 249.237 178.714 251.865 176.779 253.803C174.843 255.741 172.217 256.83 169.48 256.83Z" fill="#E5E5F0" fill-opacity="0.8"/>
<path d="M132.809 251.741C135.702 251.741 138.048 249.393 138.048 246.496C138.048 243.6 135.702 241.252 132.809 241.252C129.916 241.252 127.57 243.6 127.57 246.496C127.57 249.393 129.916 251.741 132.809 251.741Z" fill="#E5E5F0"/>
<path d="M149.835 251.741C152.728 251.741 155.073 249.393 155.073 246.496C155.073 243.6 152.728 241.252 149.835 241.252C146.941 241.252 144.596 243.6 144.596 246.496C144.596 249.393 146.941 251.741 149.835 251.741Z" fill="#E5E5F0"/>
<path d="M166.86 251.741C169.754 251.741 172.099 249.393 172.099 246.496C172.099 243.6 169.754 241.252 166.86 241.252C163.967 241.252 161.622 243.6 161.622 246.496C161.622 249.393 163.967 251.741 166.86 251.741Z" fill="#0007B0"/>
</svg>
